<?xml version="1.0" encoding="utf-8"?>
<!-- Generator: Adobe Illustrator 27.9.6, SVG Export Plug-In . SVG Version: 9.03 Build 54986)  -->
<svg version="1.1" id="Layer_1" xmlns="http://www.w3.org/2000/svg" xmlns:xlink="http://www.w3.org/1999/xlink" x="0px" y="0px"
	 viewBox="0 0 1000 1000" style="enable-background:new 0 0 1000 1000;" xml:space="preserve">
<style type="text/css">
	.st0{fill:#C12B91;}
	.st1{fill:#6C4C9F;}
</style>
<path class="st0" d="M163.3,468.12c-5.42-5.48-9.23-10.35-11.44-14.6c-2.21-4.25-3.31-8.81-3.31-13.66c0-7.31,2.22-14.18,6.66-20.61
	c4.44-6.43,10.4-11.53,17.87-15.31c7.47-3.78,15.49-5.67,24.06-5.67c9.7,0,17.17,2.02,22.4,6.05c5.23,4.03,7.85,9.74,7.85,17.11
	c0,3.53-0.95,7.18-2.84,10.97c-1.89,3.78-4.51,7.31-7.85,10.59c-2.27,2.27-4.38,3.99-6.33,5.15c-1.95,1.17-3.59,1.75-4.92,1.75
	c-1.64,0-2.46-1.26-2.46-3.78c0,0.06,0.13-0.91,0.38-2.93c0.38-2.96,0.57-5.61,0.57-7.94c0-3.28-0.49-6.57-1.46-9.88
	c-0.98-3.31-2.24-6.08-3.78-8.32c-1.55-2.24-3.01-3.36-4.4-3.36c-0.69,0-1.48,0.54-2.36,1.61c-1.7,1.77-3.02,3.96-3.97,6.58
	c-0.95,2.62-1.42,5.06-1.42,7.34c0,2.84,0.4,5.48,1.21,7.9c0.81,2.43,2.22,4.9,4.24,7.42c2.02,2.52,4.7,5.29,8.05,8.3
	c5.3,4.78,9.39,8.97,12.26,12.56c2.87,3.59,4.96,7.17,6.29,10.73c1.32,3.56,1.99,7.42,1.99,11.58c0,7.31-1.92,14.37-5.77,21.17
	c-3.84,6.81-8.93,12.31-15.27,16.5c-6.33,4.19-12.87,6.29-19.61,6.29c-6.43,0-12.7-1.39-18.81-4.16
	c-6.11-2.77-11.85-6.74-17.2-11.91c-5.55-5.48-8.32-10.33-8.32-14.56c0-2.58,1.23-5.1,3.69-7.56c2.52-2.52,5.62-4.66,9.31-6.43
	c3.69-1.76,6.79-2.65,9.31-2.65c1.45,0,2.68,0.36,3.69,1.09c1.01,0.73,1.91,1.95,2.69,3.69c0.79,1.73,1.56,4.08,2.32,7.04
	c1.2,4.22,2.3,7.36,3.31,9.41c1.01,2.05,2.43,4.08,4.25,6.1c1.89,1.89,3.88,2.84,5.96,2.84c2.52,0,4.51-0.99,5.96-2.98
	c1.45-1.99,2.17-4.71,2.17-8.18c0-5.42-1.92-10.84-5.76-16.27c-1.13-1.83-2.38-3.45-3.73-4.87c-1.35-1.42-4.3-4.14-8.84-8.17
	C168.54,472.93,166.33,470.95,163.3,468.12z"/>
<path class="st0" d="M326.49,468.16l-0.95,4.09c-0.32,1.4-0.6,2.58-0.86,3.57c-0.25,0.98-0.46,1.84-0.62,2.57
	c-0.16,0.73-0.33,1.48-0.52,2.24c-4.57,19.54-8.25,31.75-11.04,36.64c-1.27,2.16-3.17,4.09-5.71,5.8c-8,5.2-14.28,7.8-18.85,7.8
	c-3.17,0-5.85-1.16-8.04-3.47c-2.19-2.31-3.28-5.19-3.28-8.61c0-6.22,2.73-17.7,8.18-34.46c1.65-5.33,3.15-9.96,4.52-13.9
	c1.36-3.93,3.01-8.38,4.95-13.33c1.93-4.95,4.12-10.21,6.56-15.78c2.44-5.57,4.17-9.5,5.18-11.78c-8.37,1.24-16.42,1.85-24.15,1.85
	c-7.8,0-11.7-2.73-11.7-8.18c0-3.49,2.54-7.92,7.61-13.31c3.42-3.49,6.59-5.91,9.51-7.28c2.92-1.36,6.43-2.04,10.56-2.04
	c2.66,0,6.31,0.08,10.94,0.24c4.63,0.16,11.06,0.52,19.3,1.09l2.66,0.19l2.57,0.28c6.97,0.38,11.57,0.82,13.79,1.33
	c2.22,0.51,4.12,1.48,5.71,2.94c1.27,1.45,1.9,3.13,1.9,5.02c0,2.02-0.4,4.09-1.19,6.21c-0.79,2.12-1.76,3.68-2.9,4.69
	c-1.59,1.77-6.05,3.25-13.41,4.45c-0.63,0-1.3,0.06-2,0.19l-1.9,0.38c1.52,1.52,2.28,3.21,2.28,5.04c0,1.78-0.88,5.62-2.65,11.52
	c-0.57,1.46-1.92,6.25-4.07,14.38l-1.42,5.72L326.49,468.16z"/>
<path class="st0" d="M445.48,476.88h0.19h-0.38c-4.79,8.32-8.98,24.1-12.57,29.2c-3.59,5.1-7.03,9.3-10.3,12.57
	c-4.03,4.03-8.07,7.11-12.1,9.22c-4.03,2.11-7.88,3.17-11.53,3.17c-7.69,0-13.68-2.32-17.96-6.95c-4.29-4.63-6.43-11.14-6.43-19.52
	c0-10.84,2.96-26.78,8.89-47.83c2.02-7,4.06-13.55,6.14-19.66c2.08-6.11,4.32-12.04,6.71-17.77c2.4-5.73,4.26-9.8,5.58-12.19
	c0.95-1.64,2.22-2.94,3.83-3.92c1.61-0.98,3.89-1.78,6.86-2.41c4.54-0.88,8.74-1,12.69-0.51c6.83,0.85,9.96,4.07,9.96,9.87
	c0,3.28-1.27,6.18-4.11,12.67c-2.58,6.18-4.63,11.53-6.14,16.07c-0.13,0.38-0.35,1.03-0.66,1.94c-0.32,0.91-0.69,2.03-1.13,3.36
	c-1.2,3.78-2.8,9.45-4.82,17.02c-2.02,7.56-3.59,13.99-4.74,19.28c-1.14,5.29-1.71,8.73-1.71,10.3c0,2.33,0.66,3.5,1.99,3.5
	c1.45,0,4.73-3.28,9.83-9.83c4.85-6.24,10.38-14.16,16.59-23.77c6.21-9.61,11.33-27.23,15.36-34.73c2.65-4.85,4.58-8.18,5.81-9.97
	c1.23-1.8,2.47-3.17,3.73-4.11c3.34-2.46,7.01-6.4,11.55-6.4c5.8,0,12.27,6.68,12.27,11.98c0,1.07,0.38,3.28,0,6.62
	c-1.7,13.74,0,26.44,0,38.1c0,5.29-0.32,10.08,0,14.37c0.31,4.29-0.63,8.48,0,12.57c0.63,4.1-1.07,8.41,0,12.95
	c1.32,6.11,0,9.86,0,11.25c0,1.01-0.87,2.02-1.56,2.9c-1.01,1.51-2.47,1.36-5.44,2.31c-5.48,2.08-9.67,3.12-12.57,3.12
	c-3.66,0-7.11-1.32-10.35-3.97c-3.25-2.65-5.94-6.36-8.08-11.15c-2.46-5.61-4.06-12.95-4.82-22.03
	C445.86,482.93,445.67,480.41,445.48,476.88z"/>
<path class="st0" d="M111.89,627.34l10.32-31.76c2-5.7,4.41-11.26,7.23-16.67c-0.29,0.06-0.97,0.38-2.03,0.97
	c-4.06,1.65-6.94,2.47-8.65,2.47c-2.41,0-3.62-0.91-3.62-2.73c0-1.94,0.94-4.73,2.82-8.38c1.88-3.65,3.76-6.38,5.65-8.2
	c4.29-3.94,10.84-7.06,19.63-9.35c8.79-2.29,18.63-3.44,29.51-3.44c6.59,0,12.54,0.56,17.86,1.68c5.32,1.12,9.87,2.78,13.63,4.98
	c3.76,2.21,6.63,4.87,8.6,7.98c1.97,3.12,2.96,6.59,2.96,10.41c0,5.35-1.12,10.12-3.35,14.29c-2.24,4.18-5.76,8.09-10.59,11.73
	c-5.35,4-10.41,6.65-15.17,7.94c-0.53,0.18-1.44,0.35-2.73,0.53v0.44c20.64,2.65,30.96,11.17,30.96,25.58c0,2.88-0.49,5.88-1.46,9
	c-0.97,3.12-2.38,6.18-4.23,9.17c-1.85,3-4.07,5.73-6.66,8.2c-5.59,5.47-12.22,10.56-19.89,15.26c-7.67,4.7-15.39,8.5-23.16,11.38
	c-7.76,2.88-14.41,4.32-19.94,4.32c-4.65,0-9.1-0.53-13.37-1.59c-4.26-1.06-7.66-2.46-10.19-4.19c-2.53-1.74-3.79-3.6-3.79-5.6
	c0-1.82,0.51-3.53,1.54-5.12c1.03-1.59,2.92-3.56,5.69-5.91l-0.35-0.35c-1.59,0.59-3.15,0.88-4.68,0.88c-3.24,0-5.85-0.94-7.85-2.82
	c-2-1.88-3-4.44-3-7.68c0-1.82,0.82-6.07,2.47-12.75C107.72,641.35,109.66,634.46,111.89,627.34z M150.39,615.79
	c-0.24,0.76-0.47,1.62-0.71,2.56c-0.24,0.94-0.47,1.82-0.71,2.64c-2.78,9.35-5.33,16.93-7.66,22.75
	c-2.32,5.82-4.78,10.76-7.37,14.82c-1.47,2.47-3.59,5.09-6.35,7.85c7.11,2.18,12.19,3.59,15.22,4.23c3.03,0.65,6.04,0.97,9.04,0.97
	c3.47,0,6.54-0.51,9.22-1.54c2.68-1.03,5.19-2.69,7.54-4.98c3.47-3.41,6.29-7.47,8.47-12.17c2.18-4.7,3.26-9.26,3.26-13.67
	c0-4.82-1.67-8.91-5.02-12.26c-1.65-1.65-3.48-2.91-5.51-3.79c-2.03-0.88-4.83-1.62-8.42-2.21c-3.29-0.65-5.58-1.26-6.87-1.85
	C153.24,618.55,151.85,617.44,150.39,615.79z M163.58,570.44l-11.24,38.64c0.7,0.12,1.4,0.18,2.11,0.18c3.1,0,6.7-1.44,10.8-4.32
	c5.15-3.59,9.15-7.42,11.99-11.51c2.84-4.09,4.26-8.07,4.26-11.95c0-8.06-4.24-12.09-12.71-12.09
	C166.43,569.38,164.7,569.73,163.58,570.44z"/>
<path class="st0" d="M297.47,650.53h0.19h-0.38c-4.79,8.32-8.98,15.03-12.57,20.13s-7.03,9.3-10.3,12.57
	c-4.03,4.03-8.07,7.11-12.1,9.22c-4.03,2.11-7.88,3.17-11.53,3.17c-7.69,0-13.68-2.32-17.96-6.95c-4.29-4.63-6.43-11.14-6.43-19.52
	c0-10.84,2.96-26.78,8.89-47.83c2.02-7,4.06-13.55,6.14-19.66c2.08-6.11,4.32-12.04,6.71-17.77c2.4-5.73,4.26-9.8,5.58-12.19
	c0.95-1.64,2.22-2.94,3.83-3.92c1.61-0.98,3.89-1.78,6.86-2.41c4.54-0.88,8.8-1.32,12.77-1.32c6.68,0,10.03,2.9,10.03,8.7
	c0,3.28-1.42,8.16-4.25,14.65c-2.58,6.18-4.63,11.53-6.14,16.07c-0.13,0.38-0.35,1.03-0.66,1.94c-0.32,0.91-0.69,2.03-1.13,3.36
	c-1.2,3.78-2.8,9.45-4.82,17.02c-2.02,7.56-3.59,13.99-4.74,19.28c-1.14,5.29-1.71,8.73-1.71,10.3c0,2.33,0.66,3.5,1.99,3.5
	c1.45,0,4.73-3.28,9.83-9.83c4.85-6.24,10.38-14.16,16.59-23.77c6.21-9.61,11.33-18.16,15.36-25.66c2.65-4.85,4.58-8.18,5.81-9.97
	c1.23-1.8,2.47-3.17,3.73-4.11c3.34-2.46,7.28-3.69,11.82-3.69c5.8,0,8.7,2.65,8.7,7.94c0,1.07-0.19,3.28-0.57,6.62
	c-1.7,13.74-2.55,26.44-2.55,38.1c0,5.29,0.16,10.08,0.47,14.37c0.31,4.29,0.79,8.48,1.42,12.57c0.63,4.1,1.48,8.41,2.55,12.95
	c1.32,6.11,1.99,9.86,1.99,11.25c0,1.01-0.35,1.95-1.04,2.84c-1.01,1.51-2.99,2.74-5.96,3.69c-5.48,2.08-9.67,3.12-12.57,3.12
	c-3.66,0-7.11-1.32-10.35-3.97c-3.25-2.65-5.94-6.36-8.08-11.15c-2.46-5.61-4.06-12.95-4.82-22.03
	C297.85,656.58,297.66,654.06,297.47,650.53z"/>
<path class="st0" d="M367.51,681.63l22.5-75.91c1.64-5.86,3.31-9.99,5.01-12.38c1.07-1.39,2.49-2.55,4.25-3.5v-0.38h-1.32
	c-1.83,0-5.64,1.04-11.44,3.12c-6.37,2.21-10.75,3.31-13.14,3.31c-1.26,0-2.13-0.22-2.6-0.66c-0.47-0.44-0.71-1.2-0.71-2.27
	c0-2.52,0.71-5.28,2.13-8.27c1.42-2.99,3.26-5.69,5.53-8.08c2.27-2.39,4.6-4.1,7-5.1c5.48-2.14,12.92-3.81,22.31-5.01
	c9.39-1.2,19.6-1.8,30.63-1.8c11.85,0,21.93,1.86,30.25,5.58c8.32,3.72,8.95,6.09,13.26,12.48c2.57,3.81,8.41,11.93,8.3,29.73
	c-0.07,11.5-2.91,24.32-5.18,36.29c-2.11,11.15-4.74,22.7-14.07,34.12c-11.41,12.61-36.71,13.67-63.36,13.67
	c-8.57,0-16.4-0.69-23.49-2.08c-7.09-1.39-11.77-3.09-14.04-5.1c-1.45-1.13-2.17-2.8-2.17-5.01
	C367.13,683.81,367.26,682.89,367.51,681.63z M431.39,587.58l-18.98,71.84c-0.13,0.44-0.38,1.61-0.75,3.5
	c-1.13,4.98-2.43,8.82-3.88,11.53c-1.01,2.08-2.62,4.48-4.82,7.18c1.83,0.13,3.88,0.19,6.14,0.19c5.48,0,10.6,0.34,14.31,0
	c4.18-0.39,8.83-0.96,11.98-2.72c3.15-1.76,7.48-4.14,10.25-6.91c5.23-5.36,8.25-13.91,10.37-21.2c2.21-7.6,2.14-14.13,2.14-22.38
	c0-7.56-1.14-14.43-3.41-20.61c-2.27-6.18-5.42-11.04-9.46-14.6C441.26,589.83,436.63,587.89,431.39,587.58z"/>
<path class="st1" d="M869.45,387.6c-2.4-4.43-10.57-16.74-13.68-20.7c-9.59-12.17-12.43-37.95-11.54-55.42
	c0.35-6.98,5.8-16.09,7.33-18.6c1.53-2.51-0.28-6.13,2.65-12.12c4.65-9.51,1.67-20.06,1.67-20.06s-8.08-13.23-11.14-20.61
	s-17.97-17.55-23.96-17.13c-5.99,0.42-13.09-0.7-16.29-1.39c-21.89-4.76-28.83,6.13-28.83,6.13c-23.12,3.06-11.56,18.24-11.56,18.24
	s7.24,2.09,3.62,6.69c-4.97,6.3-7.1,15.11-7.1,17.06s-1.46,4.32-3.06,6.82c-1.6,2.51,0.21,6.62,1.6,8.08s0.07,4.67,0.07,4.67
	s-3.48,4.53-3.62,6.89s-2.58,4.74-5.29,10.65s7.52,6.82,7.52,6.82s3.41,4.8,2.02,6.2s1.11,4.94,1.11,4.94
	c-1.95,0.84,0.63,2.58,0.63,2.58c-4.8,8.35-3.13,12.89-2.51,14.24c3.07,6.66,15.53,11.67,24.51,10.36
	c10.41-1.52,11.98,7.5,11.98,7.5s3.63,18.69-10.31,35.27c-12.62,15.01-14.7,33.83-15.34,50.11c-0.2,4.94,0.32,9.88,1.58,14.65
	c2.08,7.88,4.69,11.58,5.47,18.07c2.74,23.01-2.19,25.89-2.47,34.98l-3.73,1.72c-5.22-13.05-12.49-27.22-21.81-42.5
	c-4.23-7.08-12.93-20.38-26.1-39.89l-14.91-23.12c-4.1-5.84-9.2-8.76-15.29-8.76c-4.97,0-9.41,1.84-13.33,5.5
	c-3.91,3.67-5.87,8.17-5.87,13.52c0,3.36,0.93,6.71,2.8,10.07c3.1,5.59,13.61,21.81,31.5,48.65c13.05,19.64,22.37,36.48,27.96,50.52
	c6.59,16.53,21,39.15,43.25,67.86l-22.93,41.94c-11.68,22.25-17.52,35.48-17.52,39.71c0,5.34,1.99,9.82,5.97,13.42
	c3.98,3.6,8.39,5.41,13.24,5.41c6.96,0,12.49-3.61,16.59-10.81l9.88-20.13l23.3-41.57c10.93-22.24,22.62-48.22,35.05-77.92
	l32.06-79.23c4.97-9.82,8.95-17.09,11.93-21.81c6.59-11.81,9.88-20.57,9.88-26.28c0-5.47-1.96-9.94-5.87-13.42
	c-2.78-2.47-5.82-4.06-9.13-4.78c-2.89-0.63-5.41-2.4-6.96-4.92L869.45,387.6z"/>
<path class="st1" d="M676.1,486.98l-38.59-39.09c1.7-16.34,0.59-35.71-14.88-47.77c-17.07-13.31-17.41-32.35-17.41-32.35
	s-0.34-9.15,10.16-9.83c9.06-0.59,20.2-8.08,21.82-15.23c0.33-1.45,1.02-6.24-5.41-13.41c0,0,2.16-2.24,0.08-2.65
	c0,0,1.71-4,0.06-5.07s0.69-6.48,0.69-6.48s9.82-3.01,5.94-8.24c-3.89-5.23-6.76-7.03-7.39-9.32s-4.98-5.99-4.98-5.99
	s-1.96-2.86-0.9-4.58c1.06-1.72,1.98-6.12-0.11-8.23s-4.01-4.13-4.42-6.04s-4.33-10.08-10.49-15.21c-4.5-3.74,2.15-7.29,2.15-7.29
	s8.15-17.25-15.1-15.44c0,0-9.05-9.21-29.47,0c-2.99,1.35-9.7,3.91-15.65,4.75c-5.94,0.84-18.41,13.88-19.87,21.74
	s-6.61,22.48-6.61,22.48s-0.72,10.93,5.8,19.27c4.11,5.25,3.09,9.17,5.11,11.3c2.02,2.13,9.24,9.91,11.03,16.67
	c4.5,16.9,7.08,42.71,0.24,56.61l-4.48,13.02c-4.76,5.22-7.34,10.37-7.76,15.44c-1.2,14.49-2.77,36.15-4.69,64.99
	s-3.49,50.5-4.69,64.99c-1.08,13-3.18,32.44-6.3,58.31c-3.12,25.87-5.22,45.3-6.3,58.31c-0.44,5.33,0.66,9.97,3.32,13.93
	c2.66,3.96,6.18,6.12,10.58,6.49l1.53,0.13c5.38,5.81,13.71,10.86,24.99,15.17c9.37,3.64,17.79,5.78,25.25,6.4
	c29.64,2.46,52.93-2.22,69.86-14.03c15.18-10.59,27.69-25.26,37.54-44.03c9.84-18.76,15.64-38.73,17.4-59.91
	C707.02,551.59,697.68,518.33,676.1,486.98z M673.06,585.12c-1.24,14.99-5.38,29.14-12.4,42.46c-7.02,13.32-15.83,23.66-26.42,31.01
	c-11.35,7.79-28.68,10.72-51.98,8.78c-13.7-1.14-24.74-5.73-33.13-13.78c-1.33-1.36-2.34-2.25-3.02-2.68l10.86-101.23l3.96-53.36
	l3.67-53.57c36.04,23.32,58.93,39.56,68.67,48.72C662.69,518.98,675.95,550.2,673.06,585.12z"/>
<path class="st0" d="M666.91,174.99c1.39-1.76,2.93-3.39,4.6-4.85l-8.31-8.31c-1.3-1.31-3.42-1.31-4.73,0c-1.3,1.3-1.3,3.42,0,4.73
	L666.91,174.99L666.91,174.99z M693.93,161.63c0.03,0,0.06,0,0.1,0c1.1,0,2.18,0.07,3.25,0.18v-11.32c0-1.85-1.5-3.34-3.34-3.34
	c-1.85,0-3.34,1.5-3.34,3.34v11.32c1.07-0.11,2.15-0.18,3.25-0.18C693.87,161.63,693.91,161.63,693.93,161.63L693.93,161.63z
	 M720.96,174.99l8.43-8.43c1.31-1.3,1.31-3.42,0-4.73c-1.3-1.31-3.42-1.31-4.73,0l-8.31,8.31
	C718.03,171.6,719.56,173.23,720.96,174.99L720.96,174.99z M658.7,198.69c0-1.61,0.13-3.19,0.32-4.76h-11.89
	c-1.84,0-3.34,1.5-3.34,3.34c0,1.85,1.5,3.34,3.34,3.34h11.61C658.72,199.99,658.7,199.35,658.7,198.69L658.7,198.69z
	 M740.73,193.94h-11.88c0.19,1.56,0.32,3.14,0.32,4.76c0,0.66-0.01,1.3-0.04,1.93h11.6c1.85,0,3.34-1.5,3.34-3.34
	S742.58,193.94,740.73,193.94L740.73,193.94z M722.72,221.34c-1.36,1.99-2.8,3.71-4.18,5.27l6.12,6.12c1.31,1.3,3.43,1.3,4.73,0
	c1.31-1.31,1.31-3.42,0-4.73L722.72,221.34L722.72,221.34z M658.48,228c-1.3,1.31-1.3,3.42,0,4.73c1.31,1.3,3.43,1.3,4.73,0
	l6.12-6.13c-1.38-1.55-2.82-3.28-4.18-5.27L658.48,228L658.48,228z M724.53,198.69c0-6.93-2.3-13.34-6.2-18.48
	c-3.41-4.51-8.05-8.05-13.41-10.12l0.03-0.15l-2.29-0.67c-1.78-0.52-3.62-0.88-5.49-1.07l-0.27-0.03h-0.01l-0.01,0
	c-0.92-0.09-1.87-0.15-2.87-0.15h-0.15c-1,0-1.95,0.07-2.87,0.15l-0.01,0l-0.28,0.03c-1.87,0.19-3.71,0.55-5.49,1.07l-2.22,0.65
	l0.02,0.15c-5.4,2.07-10.06,5.62-13.49,10.15c-3.89,5.13-6.2,11.54-6.2,18.48c0,4.97,0.86,9.06,2.2,12.44
	c2.01,5.07,5.07,8.5,7.53,11.1c1.23,1.3,2.31,2.4,3.05,3.35c0.75,0.95,1.12,1.69,1.22,2.27c0.54,2.84,0.59,6.42,0.59,7.33v0.26
	c0,4.11,3.33,7.42,7.43,7.43h17.16c4.11,0,7.43-3.33,7.43-7.43v-0.25c0-0.9,0.06-4.49,0.59-7.33c0.07-0.39,0.25-0.85,0.59-1.4
	c0.59-0.96,1.7-2.15,3.08-3.59c2.06-2.16,4.67-4.89,6.76-8.77C723.04,210.22,724.54,205.22,724.53,198.69L724.53,198.69z
	 M717.52,209.23c-1.64,4.14-4.1,6.93-6.48,9.44c-1.19,1.25-2.35,2.42-3.36,3.71c-1,1.27-1.9,2.73-2.24,4.51
	c-0.65,3.49-0.68,7.22-0.68,8.29c0,0.14,0,0.22,0,0.25c0,1.24-1,2.24-2.24,2.24h-17.16c-0.63,0-1.18-0.25-1.59-0.66
	c-0.41-0.41-0.65-0.96-0.65-1.58c0-0.03,0-0.11,0-0.26c0-1.08-0.04-4.81-0.68-8.28c-0.22-1.18-0.7-2.24-1.29-3.17
	c-1.03-1.64-2.36-2.99-3.72-4.44c-2.06-2.15-4.24-4.47-5.94-7.64c-1.69-3.17-2.95-7.2-2.96-12.95c0-5.77,1.91-11.07,5.14-15.35
	c3.23-4.27,7.78-7.49,13.03-9.06l0.65-0.2c1.27-0.33,2.57-0.59,3.91-0.73h0.01l0.25-0.03c0.79-0.08,1.55-0.12,2.3-0.13l0.13,0.01
	l0.13-0.01c0.75,0,1.52,0.05,2.3,0.12h-0.01l0.26,0.03h0c1.34,0.14,2.64,0.39,3.9,0.73l0.66,0.2c5.25,1.57,9.8,4.79,13.03,9.06
	c3.23,4.27,5.14,9.57,5.14,15.35C719.34,203.08,718.61,206.47,717.52,209.23L717.52,209.23z M697.16,168.21L697.16,168.21
	L697.16,168.21z M690.7,168.21L690.7,168.21C690.7,168.21,690.7,168.21,690.7,168.21L690.7,168.21z M702.45,244.9h-17.03
	c-1.76,0-3.19,1.42-3.19,3.2c0,1.75,1.43,3.19,3.19,3.19h17.03c1.76,0,3.19-1.43,3.19-3.19C705.64,246.32,704.21,244.9,702.45,244.9
	z M702.45,252.95h-17.03c-1.76,0-3.19,1.43-3.19,3.19c0,1.77,1.43,3.2,3.19,3.2h17.03c1.76,0,3.19-1.43,3.19-3.2
	C705.64,254.38,704.21,252.95,702.45,252.95z M695.43,261.07h-8.77c0,0.1-0.02,0.19-0.02,0.29c0,1.76,2.71,3.19,5.21,3.19h4.16
	c2.51,0,5.21-1.43,5.21-3.19c0-0.1-0.01-0.19-0.01-0.29H695.43L695.43,261.07z"/>
</svg>
